<?xml version="1.0" encoding="UTF-8"?>
<svg version="1.1" xmlns="http://www.w3.org/2000/svg" width="512" height="512">
<path d="M0 0 C168.96 0 337.92 0 512 0 C512 168.96 512 337.92 512 512 C343.04 512 174.08 512 0 512 C0 343.04 0 174.08 0 0 Z " fill="#064526" transform="translate(0,0)"/>
<path d="M0 0 C57.894375 -0.020625 115.78875 -0.04125 175.4375 -0.0625 C193.75306396 -0.071604 212.06862793 -0.08070801 230.93920898 -0.09008789 C253.21496582 -0.09460449 253.21496582 -0.09460449 263.62586975 -0.09544373 C270.93499571 -0.09637962 278.24411411 -0.10006192 285.55323792 -0.10557556 C293.97179866 -0.11191678 302.3903521 -0.11484163 310.80891526 -0.11344495 C315.1203179 -0.11283949 319.43170418 -0.11383513 323.74310386 -0.11921513 C327.63412282 -0.12404134 331.5251137 -0.12434981 335.41613388 -0.12090111 C336.82997509 -0.12047358 338.24381798 -0.12177149 339.65765584 -0.12488258 C341.57018491 -0.12884696 343.48272443 -0.12615595 345.39525509 -0.12304783 C346.46113006 -0.12342755 347.52700502 -0.12380727 348.62517923 -0.1241985 C351 0 351 0 352 1 C352.09759591 2.86614819 352.12371356 4.73604654 352.12304783 6.60474491 C352.1250387 7.82979425 352.12702957 9.0548436 352.12908077 10.31701565 C352.12622815 11.69320125 352.12328275 13.06938667 352.12025452 14.4455719 C352.12069151 15.89072692 352.12156764 17.33588186 352.12284851 18.78103638 C352.12510355 22.7790804 352.1210617 26.77709792 352.11607273 30.77513857 C352.11172531 35.1426106 352.11316606 39.51008129 352.11389065 43.87755489 C352.11442367 52.36668711 352.1097931 60.8558088 352.10338932 69.3449383 C352.09620727 79.15830465 352.09539556 88.97166462 352.09460449 98.78503418 C352.08934781 124.7108578 352.07538679 150.63667905 352.0625 176.5625 C352.041875 234.456875 352.02125 292.35125 352 352 C235.84 352 119.68 352 0 352 C0 235.84 0 119.68 0 0 Z " fill="#FBFCFC" transform="translate(83,83)"/>
<path d="M0 0 C1.5003479 0.07069702 1.5003479 0.07069702 3.03100586 0.14282227 C4.1105957 0.19116211 5.19018555 0.23950195 6.30249023 0.28930664 C7.43879883 0.34538086 8.57510742 0.40145508 9.74584961 0.45922852 C11.45611328 0.53753906 11.45611328 0.53753906 13.20092773 0.61743164 C16.02864984 0.74757785 18.85605961 0.8825573 21.68334961 1.02172852 C22.90597725 4.4136877 23.68700317 6.82078276 23.62084961 10.45922852 C23.69465993 14.66641702 24.96979519 17.19918404 26.68334961 21.02172852 C27.25239151 23.40628507 27.72651363 25.78807872 28.15600586 28.20141602 C28.3300293 28.80211914 28.50405273 29.40282227 28.68334961 30.02172852 C29.34334961 30.35172852 30.00334961 30.68172852 30.68334961 31.02172852 C31.34334961 27.39172852 32.00334961 23.76172852 32.68334961 20.02172852 C34.66334961 19.69172852 36.64334961 19.36172852 38.68334961 19.02172852 C38.68334961 18.36172852 38.68334961 17.70172852 38.68334961 17.02172852 C35.71334961 17.51672852 35.71334961 17.51672852 32.68334961 18.02172852 C32.79890465 16.31273033 32.92627964 14.60452982 33.05834961 12.89672852 C33.12795898 11.94540039 33.19756836 10.99407227 33.26928711 10.01391602 C33.68334961 7.02172852 33.68334961 7.02172852 35.68334961 1.02172852 C43.93334961 1.02172852 52.18334961 1.02172852 60.68334961 1.02172852 C61.17834961 5.47672852 61.17834961 5.47672852 61.68334961 10.02172852 C61.02334961 10.02172852 60.36334961 10.02172852 59.68334961 10.02172852 C59.68334961 10.68172852 59.68334961 11.34172852 59.68334961 12.02172852 C60.34334961 12.02172852 61.00334961 12.02172852 61.68334961 12.02172852 C61.68334961 15.32172852 61.68334961 18.62172852 61.68334961 22.02172852 C61.02334961 22.02172852 60.36334961 22.02172852 59.68334961 22.02172852 C59.68334961 23.01172852 59.68334961 24.00172852 59.68334961 25.02172852 C60.34334961 25.02172852 61.00334961 25.02172852 61.68334961 25.02172852 C61.67549438 26.69344116 61.67549438 26.69344116 61.66748047 28.39892578 C61.64930055 32.55679513 61.63787031 36.714661 61.62841797 40.87255859 C61.62340736 42.66781201 61.61659706 44.46306139 61.60791016 46.25830078 C61.59570071 48.8474223 61.59008845 51.43648958 61.58569336 54.02563477 C61.58053207 54.82070938 61.57537079 55.615784 61.5700531 56.43495178 C61.56959314 61.06471662 61.9778945 65.43472702 62.68334961 70.02172852 C62.76682066 71.76769091 62.81380592 73.51596105 62.81616211 75.26391602 C62.81745117 76.18430664 62.81874023 77.10469727 62.82006836 78.05297852 C62.81620117 78.99141602 62.81233398 79.92985352 62.80834961 80.89672852 C62.8122168 81.85836914 62.81608398 82.82000977 62.82006836 83.81079102 C62.8187793 84.72344727 62.81749023 85.63610352 62.81616211 86.57641602 C62.81503418 87.40641113 62.81390625 88.23640625 62.81274414 89.09155273 C62.68334961 91.02172852 62.68334961 91.02172852 61.68334961 92.02172852 C58.83999913 92.12159826 56.02637798 92.16050733 53.18334961 92.14672852 C51.98645508 92.1525293 51.98645508 92.1525293 50.76538086 92.15844727 C44.80995728 92.14833619 44.80995728 92.14833619 43.68334961 91.02172852 C43.59065962 89.67077869 43.56587635 88.31505761 43.56982422 86.9609375 C43.56989975 86.1001207 43.56997528 85.23930389 43.5700531 84.35240173 C43.57521439 83.41699051 43.58037567 82.48157928 43.58569336 81.51782227 C43.58710831 80.56480728 43.58852325 79.6117923 43.58998108 78.62989807 C43.59559809 75.57297686 43.60815345 72.51612775 43.62084961 69.45922852 C43.62586242 67.39217228 43.6304257 65.3251149 43.63452148 63.25805664 C43.64557305 58.17925264 43.66284906 53.10050282 43.68334961 48.02172852 C43.02334961 48.02172852 42.36334961 48.02172852 41.68334961 48.02172852 C41.5924707 48.92665039 41.5924707 48.92665039 41.49975586 49.84985352 C41.4159668 50.64907227 41.33217773 51.44829102 41.24584961 52.27172852 C41.16463867 53.06063477 41.08342773 53.84954102 40.99975586 54.66235352 C40.68334961 57.02172852 40.68334961 57.02172852 40.20629883 58.87744141 C39.65326439 61.14508914 39.31059728 63.37663725 38.99975586 65.68969727 C38.87665039 66.58366211 38.75354492 67.47762695 38.62670898 68.39868164 C38.37547209 70.25268111 38.12544541 72.10684504 37.87670898 73.96118164 C35.65381265 90.05126548 35.65381265 90.05126548 33.68334961 92.02172852 C32.18596837 92.11963421 30.68392069 92.15147716 29.18334961 92.14672852 C28.36866211 92.14930664 27.55397461 92.15188477 26.71459961 92.15454102 C24.68334961 92.02172852 24.68334961 92.02172852 23.68334961 91.02172852 C23.32642591 88.58324981 23.01977654 86.15727615 22.74584961 83.70922852 C21.92961768 76.77359815 20.90764196 69.8986047 19.68334961 63.02172852 C20.67334961 62.52672852 20.67334961 62.52672852 21.68334961 62.02172852 C22.01334961 61.03172852 22.34334961 60.04172852 22.68334961 59.02172852 C21.69334961 59.02172852 20.70334961 59.02172852 19.68334961 59.02172852 C19.35334961 59.68172852 19.02334961 60.34172852 18.68334961 61.02172852 C16.88104793 57.19183746 16.48712719 54.24051044 16.68334961 50.02172852 C16.02334961 50.02172852 15.36334961 50.02172852 14.68334961 50.02172852 C14.78993896 51.82359619 14.78993896 51.82359619 14.89868164 53.66186523 C15.15892109 58.1079184 15.40541412 62.55464455 15.64770508 67.00170898 C15.75461454 68.92835404 15.86527887 70.85479448 15.97973633 72.78100586 C16.14336942 75.54569364 16.29359747 78.31082995 16.44116211 81.07641602 C16.49523224 81.94104462 16.54930237 82.80567322 16.60501099 83.69650269 C16.7107241 85.80242137 16.70685006 87.91328917 16.68334961 90.02172852 C14.68334961 92.02172852 14.68334961 92.02172852 11.02319336 92.25219727 C9.55568097 92.24820584 8.08816752 92.2334501 6.62084961 92.20922852 C5.87512695 92.20858398 5.1294043 92.20793945 4.36108398 92.20727539 C-1.1763688 92.16201011 -1.1763688 92.16201011 -2.31665039 91.02172852 C-2.44718298 88.22801707 -2.51335556 85.45772294 -2.5378418 82.66235352 C-2.54934769 81.78599243 -2.56085358 80.90963135 -2.57270813 80.00671387 C-2.60954382 77.09508836 -2.63909651 74.18344073 -2.66821289 71.27172852 C-2.69131259 69.25772781 -2.71470275 67.24373041 -2.7383728 65.22973633 C-2.7868991 61.00287655 -2.83182198 56.77599735 -2.87426758 52.54907227 C-2.92910481 47.11784644 -2.99292344 41.68677008 -3.05944252 36.25567627 C-3.10940171 32.09517054 -3.15457584 27.93462353 -3.19828415 23.77404785 C-3.21992107 21.77085705 -3.24307879 19.7676821 -3.26774979 17.76452637 C-3.30145713 14.97007676 -3.32873371 12.17563827 -3.35424805 9.38110352 C-3.36562302 8.54470337 -3.37699799 7.70830322 -3.38871765 6.84655762 C-3.40306326 4.90485231 -3.36559843 2.96286978 -3.31665039 1.02172852 C-2.31665039 0.02172852 -2.31665039 0.02172852 0 0 Z " fill="#0C4A2B" transform="translate(316.316650390625,243.978271484375)"/>
<path d="M0 0 C6.60360935 0.02288379 13.16956092 0.39799651 19.75 0.9375 C20.63333008 0.9991333 21.51666016 1.0607666 22.42675781 1.12426758 C28.96361141 1.72151521 33.55654854 3.24465572 38.4921875 7.79296875 C41.87762416 12.52090615 42.62027566 16.43638775 42.75 22.1875 C42.80027344 23.26128906 42.85054688 24.33507812 42.90234375 25.44140625 C43.21428268 36.40917906 43.21428268 36.40917906 39.75 41.1875 C38.10305515 42.87365782 36.43873879 44.54320171 34.75 46.1875 C34.42 47.1775 34.09 48.1675 33.75 49.1875 C34.348125 49.22875 34.94625 49.27 35.5625 49.3125 C38.19047217 50.36368887 38.90222052 51.53429478 40.08764648 54.05224609 C41.6205166 58.99381708 41.58914706 64.30335691 41.875 69.4375 C42.01993189 71.79709294 42.16819596 74.15648434 42.3203125 76.515625 C42.37977051 77.5562207 42.43922852 78.59681641 42.50048828 79.66894531 C42.59810017 82.18108057 42.59810017 82.18108057 43.75 84.1875 C43.875 87.25 43.875 87.25 43.75 90.1875 C41.8104886 92.1270114 38.9379288 91.32006629 36.36132812 91.32421875 C35.52021484 91.32035156 34.67910156 91.31648438 33.8125 91.3125 C32.55663086 91.31830078 32.55663086 91.31830078 31.27539062 91.32421875 C30.47423828 91.32292969 29.67308594 91.32164062 28.84765625 91.3203125 C28.11039307 91.31918457 27.37312988 91.31805664 26.61352539 91.31689453 C24.75 91.1875 24.75 91.1875 22.75 90.1875 C21.66806003 86.36539649 21.58732835 82.59851414 21.50390625 78.64453125 C21.47103516 77.40638672 21.43816406 76.16824219 21.40429688 74.89257812 C21.34282485 72.28590252 21.28557016 69.67912423 21.23242188 67.07226562 C21.19826172 65.83798828 21.16410156 64.60371094 21.12890625 63.33203125 C21.1038501 62.20128174 21.07879395 61.07053223 21.05297852 59.90551758 C21.02008121 57.04130262 21.02008121 57.04130262 18.75 55.1875 C16.77 55.1875 14.79 55.1875 12.75 55.1875 C12.42 66.7375 12.09 78.2875 11.75 90.1875 C7.209392 90.83615829 3.36475413 91.32493699 -1.125 91.3125 C-2.54425781 91.31636719 -2.54425781 91.31636719 -3.9921875 91.3203125 C-6.25 91.1875 -6.25 91.1875 -7.25 90.1875 C-7.31160198 86.36817751 -7.27194069 82.5609873 -7.2109375 78.7421875 C-7.16154172 73.35804782 -7.38421901 68.05858301 -7.7734375 62.6875 C-8.5128218 51.70936317 -8.19746171 40.73526189 -7.953125 29.74316406 C-7.87392983 26.1387938 -7.80740797 22.53433513 -7.7421875 18.9296875 C-7.69605028 16.64061001 -7.64920262 14.3515467 -7.6015625 12.0625 C-7.58171295 10.98355469 -7.5618634 9.90460938 -7.54141235 8.79296875 C-7.51823944 7.80683594 -7.49506653 6.82070312 -7.47119141 5.8046875 C-7.45263092 4.93440918 -7.43407043 4.06413086 -7.41494751 3.16748047 C-7.05514689 -1.15145832 -3.62631754 0.01962293 0 0 Z " fill="#0B492A" transform="translate(257.25,244.8125)"/>
<path d="M0 0 C1.31484375 -0.0309375 1.31484375 -0.0309375 2.65625 -0.0625 C3.49929687 -0.06765625 4.34234375 -0.0728125 5.2109375 -0.078125 C6.37181885 -0.09214355 6.37181885 -0.09214355 7.55615234 -0.10644531 C10.25728185 0.35893692 11.03278858 1.02728585 12.625 3.25 C13.45288086 5.84350586 13.45288086 5.84350586 14.08984375 8.96484375 C14.45106323 10.69250977 14.45106323 10.69250977 14.81958008 12.45507812 C15.06474365 13.68677734 15.30990723 14.91847656 15.5625 16.1875 C15.82119873 17.44626953 16.07989746 18.70503906 16.34643555 20.00195312 C16.86898196 22.55222621 17.38667536 25.10349868 17.89941406 27.65576172 C18.53770349 30.81757093 19.19619371 33.97391326 19.8671875 37.12890625 C21.69666301 45.82153538 23.26302488 54.34541211 23.625 63.25 C24.285 63.25 24.945 63.25 25.625 63.25 C25.82416016 64.62285156 25.82416016 64.62285156 26.02734375 66.0234375 C26.20394531 67.21195312 26.38054687 68.40046875 26.5625 69.625 C26.73652344 70.80835938 26.91054687 71.99171875 27.08984375 73.2109375 C27.45962786 76.15702381 27.45962786 76.15702381 28.625 78.25 C28.7212762 80.26896864 28.75481825 82.2912429 28.75 84.3125 C28.75386719 85.93865234 28.75386719 85.93865234 28.7578125 87.59765625 C28.625 90.25 28.625 90.25 27.625 91.25 C24.98173995 91.45696667 22.3966971 91.57436753 19.75 91.625 C18.64978516 91.68107422 18.64978516 91.68107422 17.52734375 91.73828125 C15.3828125 91.7734375 15.3828125 91.7734375 11.625 91.25 C7.70881699 86.88224917 7.99912493 81.86187392 7.625 76.25 C3.005 76.25 -1.615 76.25 -6.375 76.25 C-6.601875 77.796875 -6.82875 79.34375 -7.0625 80.9375 C-7.78457766 84.4005255 -8.43480972 86.34345269 -10.375 89.375 C-14.60334221 92.01771388 -18.50074315 92.03483797 -23.375 91.25 C-24.365 90.59 -25.355 89.93 -26.375 89.25 C-25.92568001 85.56134403 -25.46392249 81.87434556 -25 78.1875 C-24.87367188 77.14916016 -24.74734375 76.11082031 -24.6171875 75.04101562 C-23.92305496 69.57472188 -22.96820593 64.51624554 -21.375 59.25 C-21.1362668 57.48534326 -20.94231605 55.71349401 -20.8125 53.9375 C-20.4759009 49.4518018 -20.4759009 49.4518018 -19.375 47.25 C-19.1969644 45.83701906 -19.05576947 44.41923364 -18.9375 43 C-18.54638886 39.14999969 -17.62306934 35.92079217 -16.375 32.25 C-14.60575439 24.74993707 -14.06482066 17.30961901 -13.81640625 9.6328125 C-12.56316827 0.02835151 -8.21450309 0.04789798 0 0 Z " fill="#0E4B2C" transform="translate(210.375,245.75)"/>
<path d="M0 0 C0.9024646 -0.0033284 1.8049292 -0.0066568 2.73474121 -0.01008606 C4.64460744 -0.01515319 6.55448253 -0.01749445 8.46435547 -0.01733398 C11.39435301 -0.01952236 14.32397528 -0.03768543 17.25390625 -0.05664062 C19.10676954 -0.05957414 20.95963463 -0.06155922 22.8125 -0.0625 C24.13284241 -0.07327827 24.13284241 -0.07327827 25.4798584 -0.08427429 C31.67742452 -0.06085673 31.67742452 -0.06085673 33.90625 2.16796875 C34.05132695 4.91282468 34.09277423 7.55277418 34.03125 10.29296875 C34.02222656 11.04707031 34.01320312 11.80117188 34.00390625 12.578125 C33.9803187 14.44154129 33.94444719 16.30479468 33.90625 18.16796875 C31.59625 17.83796875 29.28625 17.50796875 26.90625 17.16796875 C26.90625 17.82796875 26.90625 18.48796875 26.90625 19.16796875 C21.29625 19.16796875 15.68625 19.16796875 9.90625 19.16796875 C9.57625 24.44796875 9.24625 29.72796875 8.90625 35.16796875 C15.50625 35.16796875 22.10625 35.16796875 28.90625 35.16796875 C29.1125 37.76671875 29.31875 40.36546875 29.53125 43.04296875 C29.60166504 43.86007324 29.67208008 44.67717773 29.74462891 45.51904297 C29.87753855 47.39809412 29.89430259 49.28426085 29.90625 51.16796875 C27.90625 53.16796875 27.90625 53.16796875 23.9921875 53.36328125 C22.42175649 53.34997251 20.85138779 53.32610477 19.28125 53.29296875 C18.47945312 53.28394531 17.67765625 53.27492188 16.8515625 53.265625 C14.86966477 53.24203098 12.88792019 53.2061594 10.90625 53.16796875 C10.93654297 53.84263184 10.96683594 54.51729492 10.99804688 55.21240234 C11.13639144 58.32249458 11.27133911 61.43272575 11.40625 64.54296875 C11.45394531 65.60386719 11.50164062 66.66476562 11.55078125 67.7578125 C11.68547258 70.89419644 11.80223193 74.03042374 11.90625 77.16796875 C11.95652344 78.61091309 11.95652344 78.61091309 12.0078125 80.08300781 C12.03488281 81.41283691 12.03488281 81.41283691 12.0625 82.76953125 C12.09053711 83.93863037 12.09053711 83.93863037 12.11914062 85.13134766 C11.90625 87.16796875 11.90625 87.16796875 9.90625 90.16796875 C8.05859375 90.5402832 8.05859375 90.5402832 5.84375 90.53125 C4.64878906 90.5302832 4.64878906 90.5302832 3.4296875 90.52929688 C2.18058594 90.50512695 2.18058594 90.50512695 0.90625 90.48046875 C-0.34285156 90.48530273 -0.34285156 90.48530273 -1.6171875 90.49023438 C-7.82674745 90.4349713 -7.82674745 90.4349713 -10.09375 88.16796875 C-11.53687259 79.77508656 -11.22108199 71.24715499 -11.19140625 62.7578125 C-11.18953796 61.17883855 -11.188116 59.59986402 -11.18711853 58.02088928 C-11.1833257 53.89293783 -11.17352353 49.76502234 -11.16241455 45.63708496 C-11.1521304 41.41366054 -11.14760599 37.19023024 -11.14257812 32.96679688 C-11.13189793 24.70050445 -11.114861 16.43424109 -11.09375 8.16796875 C-10.43375 7.83796875 -9.77375 7.50796875 -9.09375 7.16796875 C-10.08375 6.83796875 -11.07375 6.50796875 -12.09375 6.16796875 C-11.71875 3.73046875 -11.71875 3.73046875 -11.09375 1.16796875 C-7.67476325 -0.54152463 -3.76213387 0.00475626 0 0 Z " fill="#0E4B2C" transform="translate(150.09375,245.83203125)"/>
<path d="M0 0 C3.17331061 1.89048292 3.73581999 2.39501649 4.9375 5.75 C5.19628906 8.95458984 5.19628906 8.95458984 5.203125 12.7109375 C5.20503845 13.37912506 5.2069519 14.04731262 5.20892334 14.73574829 C5.21028097 16.14610166 5.206614 17.5564677 5.19824219 18.96679688 C5.18756985 21.11096731 5.1981337 23.25429356 5.2109375 25.3984375 C5.20961517 26.77343933 5.20705126 28.14844064 5.203125 29.5234375 C5.20086914 30.76528809 5.19861328 32.00713867 5.19628906 33.28662109 C4.84840393 37.94237443 4.02000793 41.45797441 1 45.0625 C-2.79830147 48.1702012 -6.3148829 48.06650781 -11.0625 47.75 C-14.76628769 46.39194451 -17.78298483 44.93634345 -21.0625 42.75 C-22.62062771 37.19805068 -22.20960077 31.22410005 -22.1875 25.5 C-22.19136719 24.51386719 -22.19523438 23.52773437 -22.19921875 22.51171875 C-22.17643084 5.21569848 -22.17643084 5.21569848 -18.6875 0.625 C-13.33249414 -3.01382326 -5.81330973 -2.18911245 0 0 Z " fill="#1A5436" transform="translate(160.0625,184.25)"/>
<path d="M0 0 C17 0 17 0 24 3 C27.63441585 7.80680806 27.77018208 13.1895124 27 19 C25.4375 21.8125 25.4375 21.8125 24 24 C24.22663015 27.32960105 24.22663015 27.32960105 26 30 C26.15582303 31.34015221 26.25044142 32.68758903 26.31640625 34.03515625 C26.35830078 34.84404297 26.40019531 35.65292969 26.44335938 36.48632812 C26.48267578 37.33646484 26.52199219 38.18660156 26.5625 39.0625 C26.60568359 39.91650391 26.64886719 40.77050781 26.69335938 41.65039062 C26.79976702 43.76672037 26.90041731 45.88333813 27 48 C23.7 48 20.4 48 17 48 C14.88873057 43.77746115 14.7828003 41.85998477 14.875 37.25 C14.89304687 36.07953125 14.91109375 34.9090625 14.9296875 33.703125 C14.95289063 32.81109375 14.97609375 31.9190625 15 31 C13.68 30.34 12.36 29.68 11 29 C11 35.27 11 41.54 11 48 C7.37 48 3.74 48 0 48 C0 32.16 0 16.32 0 0 Z " fill="#104C2E" transform="translate(286,183)"/>
<path d="M0 0 C7.92 0 15.84 0 24 0 C25.36623674 2.73247348 25.128426 4.98198902 25 8 C24 9 24 9 21.05859375 9.09765625 C19.26615234 9.08025391 19.26615234 9.08025391 17.4375 9.0625 C15.64119141 9.04896484 15.64119141 9.04896484 13.80859375 9.03515625 C12.88175781 9.02355469 11.95492188 9.01195312 11 9 C11.33 11.97 11.66 14.94 12 18 C15.63 18.33 19.26 18.66 23 19 C23.09765625 25.93359375 23.09765625 25.93359375 23 28 C22 29 22 29 19.71484375 29.09765625 C18.34005859 29.08025391 18.34005859 29.08025391 16.9375 29.0625 C16.01839844 29.05347656 15.09929687 29.04445312 14.15234375 29.03515625 C13.44207031 29.02355469 12.73179687 29.01195312 12 29 C11.67 31.97 11.34 34.94 11 38 C12.12148438 37.98259766 12.12148438 37.98259766 13.265625 37.96484375 C14.74289062 37.95130859 14.74289062 37.95130859 16.25 37.9375 C17.22453125 37.92589844 18.1990625 37.91429687 19.203125 37.90234375 C22 38 22 38 26 39 C26 42.3 26 45.6 26 49 C24.20866022 49.05391993 22.41686101 49.09275571 20.625 49.125 C19.62726563 49.14820313 18.62953125 49.17140625 17.6015625 49.1953125 C15 49 15 49 13 47 C12.34 47.66 11.68 48.32 11 49 C7.37 49 3.74 49 0 49 C0 32.83 0 16.66 0 0 Z " fill="#155133" transform="translate(320,183)"/>
<path d="M0 0 C7.59 0 15.18 0 23 0 C25 2 25 2 25 9 C20.38 9 15.76 9 11 9 C11 12.3 11 15.6 11 19 C14.63 19 18.26 19 22 19 C22 22.3 22 25.6 22 29 C18.37 29.33 14.74 29.66 11 30 C11 32.31 11 34.62 11 37 C11.99902344 37.13277344 12.99804688 37.26554687 14.02734375 37.40234375 C15.31769531 37.57894531 16.60804688 37.75554687 17.9375 37.9375 C19.22527344 38.11152344 20.51304687 38.28554687 21.83984375 38.46484375 C25 39 25 39 26 40 C26.07179964 41.51928038 26.08392007 43.04167482 26.0625 44.5625 C26.05347656 45.38878906 26.04445312 46.21507812 26.03515625 47.06640625 C26.02355469 47.70449219 26.01195312 48.34257812 26 49 C24.06318839 49.08107583 22.1254066 49.13922475 20.1875 49.1875 C19.10855469 49.22230469 18.02960938 49.25710937 16.91796875 49.29296875 C14 49 14 49 12.11328125 47.48828125 C11.74589844 46.99714844 11.37851563 46.50601563 11 46 C11 46.66 11 47.32 11 48 C7.37 48 3.74 48 0 48 C0 32.16 0 16.32 0 0 Z " fill="#124E30" transform="translate(206,183)"/>
<path d="M0 0 C7.59 0 15.18 0 23 0 C24 1 24 1 24.09765625 2.84765625 C24.06510417 4.8984375 24.03255208 6.94921875 24 9 C19.71 9 15.42 9 11 9 C11 12.3 11 15.6 11 19 C14.63 19 18.26 19 22 19 C22 22.3 22 25.6 22 29 C18.37 29 14.74 29 11 29 C11 31.97 11 34.94 11 38 C11.66386719 37.97679687 12.32773437 37.95359375 13.01171875 37.9296875 C21.78207381 37.75043937 21.78207381 37.75043937 26 40 C26 42.97 26 45.94 26 49 C22.04 49 18.08 49 14 49 C14 48.01 14 47.02 14 46 C13.01 46 12.02 46 11 46 C11 46.66 11 47.32 11 48 C7.37 48 3.74 48 0 48 C0 32.16 0 16.32 0 0 Z " fill="#144F31" transform="translate(353,183)"/>
<path d="M0 0 C3.3 0 6.6 0 10 0 C13.3575308 7.55444431 15.74041382 13.77875853 13 22 C15.31 22 17.62 22 20 22 C19.67 23.32 19.34 24.64 19 26 C20.65 26 22.3 26 24 26 C24 25.34 24 24.68 24 24 C24.99 24 25.98 24 27 24 C27 32.25 27 40.5 27 49 C23.37 49 19.74 49 16 49 C15.7525 47.783125 15.505 46.56625 15.25 45.3125 C13.87859456 39.09148691 11.91733466 33.07155976 10 27 C9.67 33.93 9.34 40.86 9 48 C6.03 48 3.06 48 0 48 C0 32.16 0 16.32 0 0 Z " fill="#0C4A2B" transform="translate(172,183)"/>
<path d="M0 0 C1.5003479 0.07069702 1.5003479 0.07069702 3.03100586 0.14282227 C4.1105957 0.19116211 5.19018555 0.23950195 6.30249023 0.28930664 C7.43879883 0.34538086 8.57510742 0.40145508 9.74584961 0.45922852 C11.45611328 0.53753906 11.45611328 0.53753906 13.20092773 0.61743164 C16.02864984 0.74757785 18.85605961 0.8825573 21.68334961 1.02172852 C22.90597725 4.4136877 23.68700317 6.82078276 23.62084961 10.45922852 C23.67812178 13.72374204 23.94294209 15.00539327 25.24584961 17.83422852 C25.72022461 18.88610352 26.19459961 19.93797852 26.68334961 21.02172852 C26.35334961 21.68172852 26.02334961 22.34172852 25.68334961 23.02172852 C25.35334961 23.02172852 25.02334961 23.02172852 24.68334961 23.02172852 C24.66272461 23.78485352 24.64209961 24.54797852 24.62084961 25.33422852 C23.68334961 28.02172852 23.68334961 28.02172852 20.43334961 29.83422852 C17.15979793 30.87085321 15.04615841 31.30996927 11.68334961 31.02172852 C11.02334961 31.02172852 10.36334961 31.02172852 9.68334961 31.02172852 C8.69334961 31.02172852 7.70334961 31.02172852 6.68334961 31.02172852 C6.68334961 29.70172852 6.68334961 28.38172852 6.68334961 27.02172852 C5.69334961 27.02172852 4.70334961 27.02172852 3.68334961 27.02172852 C4.01334961 25.37172852 4.34334961 23.72172852 4.68334961 22.02172852 C3.36334961 22.35172852 2.04334961 22.68172852 0.68334961 23.02172852 C0.68334961 23.68172852 0.68334961 24.34172852 0.68334961 25.02172852 C0.02334961 25.02172852 -0.63665039 25.02172852 -1.31665039 25.02172852 C-1.31665039 39.21172852 -1.31665039 53.40172852 -1.31665039 68.02172852 C-0.65665039 68.02172852 0.00334961 68.02172852 0.68334961 68.02172852 C0.68334961 67.36172852 0.68334961 66.70172852 0.68334961 66.02172852 C1.67334961 66.02172852 2.66334961 66.02172852 3.68334961 66.02172852 C4.01334961 67.34172852 4.34334961 68.66172852 4.68334961 70.02172852 C2.20834961 70.51672852 2.20834961 70.51672852 -0.31665039 71.02172852 C-0.64665039 77.62172852 -0.97665039 84.22172852 -1.31665039 91.02172852 C-1.64665039 91.02172852 -1.97665039 91.02172852 -2.31665039 91.02172852 C-2.47022046 79.30452646 -2.61840223 67.58727004 -2.75961399 55.86991215 C-2.8253483 50.42967549 -2.89297204 44.98947572 -2.96484375 39.54931641 C-3.03407403 34.30392031 -3.09843277 29.05848542 -3.15934563 23.81298637 C-3.18350942 21.8069992 -3.20945915 19.80103274 -3.23718452 17.79509163 C-3.2755774 14.99575166 -3.30774487 12.19640672 -3.33837891 9.39697266 C-3.35132492 8.55900146 -3.36427094 7.72103027 -3.37760925 6.85766602 C-3.39565999 4.91233114 -3.36189957 2.96662083 -3.31665039 1.02172852 C-2.31665039 0.02172852 -2.31665039 0.02172852 0 0 Z " fill="#36684D" transform="translate(316.316650390625,243.978271484375)"/>
<path d="M0 0 C4.31248609 -0.02886537 8.62494762 -0.04675255 12.9375 -0.0625 C14.16919922 -0.07087891 15.40089844 -0.07925781 16.66992188 -0.08789062 C17.83974609 -0.09111328 19.00957031 -0.09433594 20.21484375 -0.09765625 C21.84087524 -0.10551147 21.84087524 -0.10551147 23.49975586 -0.11352539 C26 0 26 0 27 1 C27.14115161 3.67058851 27.04247107 6.32432238 27 9 C25 10 25 10 19 10 C19 22.54 19 35.08 19 48 C15.7 48 12.4 48 9 48 C7.26760896 46.26760896 7.86979314 43.92357899 7.8671875 41.56640625 C7.86589844 40.44169922 7.86460937 39.31699219 7.86328125 38.15820312 C7.86714844 36.97162109 7.87101562 35.78503906 7.875 34.5625 C7.87113281 33.41072266 7.86726563 32.25894531 7.86328125 31.07226562 C7.87095658 24.30646605 8.20356815 17.71910358 9 11 C6.03 11 3.06 11 0 11 C0 7.37 0 3.74 0 0 Z " fill="#175134" transform="translate(252,184)"/>
<path d="M0 0 C0.99 0.33 1.98 0.66 3 1 C3.33 2.98 3.66 4.96 4 7 C5.32 7 6.64 7 8 7 C8 6.34 8 5.68 8 5 C8.66 5 9.32 5 10 5 C10.33 5.66 10.66 6.32 11 7 C13.32156597 7.40729228 15.6568787 7.74438677 18 8 C18 7.34 18 6.68 18 6 C18.99 6 19.98 6 21 6 C21 14.25 21 22.5 21 31 C17.37 31 13.74 31 10 31 C9.7525 29.783125 9.505 28.56625 9.25 27.3125 C7.87859456 21.09148691 5.91733466 15.07155976 4 9 C3.67 15.93 3.34 22.86 3 30 C0.03 30 -2.94 30 -6 30 C-6 29.67 -6 29.34 -6 29 C-3.36 29 -0.72 29 2 29 C1.86125385 25.22887069 1.71278907 21.45818555 1.5625 17.6875 C1.52318359 16.61564453 1.48386719 15.54378906 1.44335938 14.43945312 C1.40146484 13.41142578 1.35957031 12.38339844 1.31640625 11.32421875 C1.27974854 10.37635498 1.24309082 9.42849121 1.20532227 8.4519043 C1.08569813 5.863829 1.08569813 5.863829 0 3 C0 2.01 0 1.02 0 0 Z " fill="#145032" transform="translate(178,201)"/>
<path d="M0 0 C2.475 0.99 2.475 0.99 5 2 C5.33 9.59 5.66 17.18 6 25 C0.72 25 -4.56 25 -10 25 C-10.02683201 21.52078265 -10.0467567 18.04176961 -10.0625 14.5625 C-10.07087891 13.56927734 -10.07925781 12.57605469 -10.08789062 11.55273438 C-10.09111328 10.60849609 -10.09433594 9.66425781 -10.09765625 8.69140625 C-10.10289307 7.81685791 -10.10812988 6.94230957 -10.11352539 6.04125977 C-10 4 -10 4 -9 3 C-6.66702567 2.95907063 -4.33294775 2.95758277 -2 3 C-2 2.34 -2 1.68 -2 1 C-1.34 0.67 -0.68 0.34 0 0 Z " fill="#084727" transform="translate(325,311)"/>
<path d="M0 0 C0.66 0 1.32 0 2 0 C1.67 1.65 1.34 3.3 1 5 C1.99 5.33 2.98 5.66 4 6 C4.73046875 7.84765625 4.73046875 7.84765625 5.1875 10.0625 C5.34605469 10.79597656 5.50460937 11.52945312 5.66796875 12.28515625 C5.77753906 12.85105469 5.88710938 13.41695313 6 14 C5.34 14 4.68 14 4 14 C3.979375 14.763125 3.95875 15.52625 3.9375 16.3125 C3 19 3 19 -0.25 20.8125 C-3.52355168 21.8491247 -5.6371912 22.28824075 -9 22 C-9.66 22 -10.32 22 -11 22 C-11.99 22 -12.98 22 -14 22 C-14 20.68 -14 19.36 -14 18 C-14.99 18 -15.98 18 -17 18 C-16.67 16.35 -16.34 14.7 -16 13 C-16.66 13 -17.32 13 -18 13 C-18 12.34 -18 11.68 -18 11 C-15 9 -15 9 -12 9 C-12 8.01 -12 7.02 -12 6 C-11.01 5.67 -10.02 5.34 -9 5 C-8.67 5.66 -8.34 6.32 -8 7 C-4.18084612 5.49961812 -2.50053617 3.16734582 0 0 Z " fill="#144F31" transform="translate(337,253)"/>
<path d="M0 0 C7.59 0 15.18 0 23 0 C23 1.65 23 3.3 23 5 C22.01 5 21.02 5 20 5 C19.67 5.99 19.34 6.98 19 8 C18.34 8 17.68 8 17 8 C17 9.65 17 11.3 17 13 C15.5199159 12.88637738 14.04089926 12.75877092 12.5625 12.625 C11.73878906 12.55539062 10.91507812 12.48578125 10.06640625 12.4140625 C9.38449219 12.27742188 8.70257813 12.14078125 8 12 C7.67 11.34 7.34 10.68 7 10 C6.01 9.67 5.02 9.34 4 9 C4.33 10.65 4.66 12.3 5 14 C4.01 14.495 4.01 14.495 3 15 C3 16.32 3 17.64 3 19 C2.34 19 1.68 19 1 19 C0.67 19.99 0.34 20.98 0 22 C0.01160156 21.21753906 0.02320313 20.43507813 0.03515625 19.62890625 C0.04417969 18.61699219 0.05320312 17.60507812 0.0625 16.5625 C0.07410156 15.55316406 0.08570313 14.54382813 0.09765625 13.50390625 C0.28612676 11.05978933 0.28612676 11.05978933 -1 10 C-1.04063832 8.33382885 -1.042721 6.66611905 -1 5 C-0.01 5 0.98 5 2 5 C2 3.68 2 2.36 2 1 C1.34 0.67 0.68 0.34 0 0 Z " fill="#0C492A" transform="translate(315,245)"/>
<path d="M0 0 C0.0984715 6.17088048 0.07642427 12.33589513 -0.25 18.5 C-0.31960937 19.93859375 -0.31960937 19.93859375 -0.390625 21.40625 C-1.15895496 24.6765775 -2.38511644 25.94270191 -5 28 C-7.75 28.25 -7.75 28.25 -10 28 C-10.33 25.69 -10.66 23.38 -11 21 C-10.34 21 -9.68 21 -9 21 C-8.67 14.07 -8.34 7.14 -8 0 C-4.71023192 -1.09658936 -3.28696233 -0.79953138 0 0 Z " fill="#084728" transform="translate(164,203)"/>
<path d="M0 0 C4.19015895 0.37245857 7.04840168 0.92805754 10 4 C10.42578125 7.28515625 10.42578125 7.28515625 10.3125 11.0625 C10.28800781 12.31160156 10.26351563 13.56070312 10.23828125 14.84765625 C10 18 10 18 9 20 C6.96875 20.44921875 6.96875 20.44921875 4.5 20.6875 C3.6853125 20.77386719 2.870625 20.86023438 2.03125 20.94921875 C1.3609375 20.96597656 0.690625 20.98273438 0 21 C-2.64878232 18.35121768 -1.85544101 11.58235257 -2 8 C-1.65775401 1.65775401 -1.65775401 1.65775401 0 0 Z " fill="#E9EEEB" transform="translate(270,262)"/>
<path d="M0 0 C4.29 0 8.58 0 13 0 C11.68 0.99 10.36 1.98 9 3 C10.65 3.33 12.3 3.66 14 4 C14 6.31 14 8.62 14 11 C11.69 11.33 9.38 11.66 7 12 C7.33 13.32 7.66 14.64 8 16 C6.68 16 5.36 16 4 16 C4 16.99 4 17.98 4 19 C2.35 19 0.7 19 -1 19 C0.32 18.67 1.64 18.34 3 18 C3 17.34 3 16.68 3 16 C1.02 16.33 -0.96 16.66 -3 17 C-2.88444496 15.29100181 -2.75706997 13.58280131 -2.625 11.875 C-2.55539062 10.92367187 -2.48578125 9.97234375 -2.4140625 8.9921875 C-2 6 -2 6 0 0 Z " fill="#165133" transform="translate(352,245)"/>
<path d="M0 0 C2.5 0.125 2.5 0.125 3.5 1.125 C3.58775605 3.27058827 3.60695219 5.41904421 3.59765625 7.56640625 C3.59443359 8.87158203 3.59121094 10.17675781 3.58789062 11.52148438 C3.57953401 12.9101569 3.57106905 14.29882877 3.5625 15.6875 C3.55748666 17.08007656 3.55292347 18.47265481 3.54882812 19.86523438 C3.53699434 23.2851987 3.5205088 26.70507844 3.5 30.125 C1.125 30.75 1.125 30.75 -1.5 31.125 C-3.5 29.125 -3.5 29.125 -3.74291992 26.34350586 C-3.73675659 24.60919312 -3.73675659 24.60919312 -3.73046875 22.83984375 C-3.72853516 21.58751953 -3.72660156 20.33519531 -3.72460938 19.04492188 C-3.71236328 17.73072266 -3.70011719 16.41652344 -3.6875 15.0625 C-3.68685547 13.74443359 -3.68621094 12.42636719 -3.68554688 11.06835938 C-3.63506802 0.1817534 -3.63506802 0.1817534 0 0 Z " fill="#E5EBE7" transform="translate(151.5,191.875)"/>
<path d="M0 0 C0.99 0.33 1.98 0.66 3 1 C4.60881575 8.42640842 5.26442904 15.40501039 5 23 C1.13516607 24.70182603 -0.88425634 25.17592676 -5 24 C-4.39496146 18.3444819 -3.37814297 12.99786009 -1.9375 7.5 C-1.75123047 6.77296875 -1.56496094 6.0459375 -1.37304688 5.296875 C-0.91973545 3.53012276 -0.4604998 1.76489225 0 0 Z " fill="#EEF2EF" transform="translate(210,281)"/>
<path d="M0 0 C1.23556641 0.01740234 1.23556641 0.01740234 2.49609375 0.03515625 C3.32238281 0.04417969 4.14867187 0.05320313 5 0.0625 C5.63808594 0.07410156 6.27617187 0.08570313 6.93359375 0.09765625 C7.05859375 3.47265625 7.05859375 3.47265625 6.93359375 7.09765625 C6.27359375 7.75765625 5.61359375 8.41765625 4.93359375 9.09765625 C4.93359375 10.21140625 4.93359375 11.32515625 4.93359375 12.47265625 C4.93359375 15.87135302 4.71633672 17.31212036 2.93359375 20.09765625 C1.28359375 20.09765625 -0.36640625 20.09765625 -2.06640625 20.09765625 C-2.26235301 16.95228857 -2.44674635 13.80635011 -2.62890625 10.66015625 C-2.68498047 9.76232422 -2.74105469 8.86449219 -2.79882812 7.93945312 C-2.84716797 7.08544922 -2.89550781 6.23144531 -2.9453125 5.3515625 C-2.99244385 4.56080322 -3.0395752 3.77004395 -3.08813477 2.95532227 C-3.05679898 0.27628872 -2.65757507 0.12559429 0 0 Z " fill="#0E4B2C" transform="translate(193.06640625,182.90234375)"/>
<path d="M0 0 C2.09350689 3.4019487 2.17942163 6.05272412 2 10 C1.34 9.67 0.68 9.34 0 9 C0.33 8.01 0.66 7.02 1 6 C0.236875 6.763125 -0.52625 7.52625 -1.3125 8.3125 C-3.20833333 10.20833333 -5.10416667 12.10416667 -7 14 C-8.98 13.34 -10.96 12.68 -13 12 C-13 12.99 -13 13.98 -13 15 C-14.98 15.66 -16.96 16.32 -19 17 C-19 17.66 -19 18.32 -19 19 C-19.99 19 -20.98 19 -22 19 C-22 18.34 -22 17.68 -22 17 C-21.34 17 -20.68 17 -20 17 C-20.33 15.68 -20.66 14.36 -21 13 C-20.01 12.67 -19.02 12.34 -18 12 C-18.33 10.35 -18.66 8.7 -19 7 C-17.68 7.33 -16.36 7.66 -15 8 C-15 8.66 -15 9.32 -15 10 C-14.2575 9.79375 -13.515 9.5875 -12.75 9.375 C-9.67669159 8.95591249 -8.57213134 9.38050989 -6 11 C-6.061875 10.236875 -6.12375 9.47375 -6.1875 8.6875 C-6 6 -6 6 -4.6875 4.1875 C-3 3 -3 3 0 3 C0 2.01 0 1.02 0 0 Z " fill="#5C846D" transform="translate(338,247)"/>
<path d="M0 0 C0.99 0.495 0.99 0.495 2 1 C2 3.64 2 6.28 2 9 C2.66 9 3.32 9 4 9 C4.66 8.01 5.32 7.02 6 6 C6 7.98 6 9.96 6 12 C7.65 12 9.3 12 11 12 C11 12.66 11 13.32 11 14 C12.32 14.33 13.64 14.66 15 15 C15 23.25 15 31.5 15 40 C14.67 40 14.34 40 14 40 C14 32.08 14 24.16 14 16 C13.01 16 12.02 16 11 16 C11 16.66 11 17.32 11 18 C9.35 18 7.7 18 6 18 C6.33 16.68 6.66 15.36 7 14 C4.69 14 2.38 14 0 14 C0 9.38 0 4.76 0 0 Z " fill="#B7C9BE" transform="translate(185,191)"/>
<path d="M0 0 C0.33 0 0.66 0 1 0 C1.3105536 5.21403144 1.61351313 10.42842755 1.90942383 15.64331055 C2.01117353 17.41752027 2.11500241 19.19161202 2.22094727 20.96557617 C2.37281499 23.51452983 2.51721584 26.06381333 2.66015625 28.61328125 C2.70906509 29.40712723 2.75797394 30.20097321 2.80836487 31.01887512 C2.98805335 34.33583829 3.06070276 36.81789171 2 40 C1.67 40 1.34 40 1 40 C0.02700844 35.14270355 -0.12038805 30.5499375 -0.0625 25.625 C-0.05798828 24.88894531 -0.05347656 24.15289062 -0.04882812 23.39453125 C-0.03715142 21.59631842 -0.01922011 19.79814803 0 18 C-2.31 17.67 -4.62 17.34 -7 17 C-7 16.01 -7 15.02 -7 14 C-4.69 14 -2.38 14 0 14 C0 9.38 0 4.76 0 0 Z " fill="#3C6C52" transform="translate(330,295)"/>
<path d="M0 0 C1.23556641 0.01740234 1.23556641 0.01740234 2.49609375 0.03515625 C3.32238281 0.04417969 4.14867187 0.05320313 5 0.0625 C5.63808594 0.07410156 6.27617187 0.08570313 6.93359375 0.09765625 C7.05859375 3.47265625 7.05859375 3.47265625 6.93359375 7.09765625 C6.27359375 7.75765625 5.61359375 8.41765625 4.93359375 9.09765625 C4.76682093 12.68109601 4.76682093 12.68109601 4.93359375 16.09765625 C4.27359375 16.42765625 3.61359375 16.75765625 2.93359375 17.09765625 C2.76571002 15.47278154 2.59932588 13.84775183 2.43359375 12.22265625 C2.34078125 11.31773437 2.24796875 10.4128125 2.15234375 9.48046875 C1.93359375 7.09765625 1.93359375 7.09765625 1.93359375 5.09765625 C3.25359375 5.42765625 4.57359375 5.75765625 5.93359375 6.09765625 C5.93359375 4.44765625 5.93359375 2.79765625 5.93359375 1.09765625 C3.62359375 1.42765625 1.31359375 1.75765625 -1.06640625 2.09765625 C-1.06640625 7.70765625 -1.06640625 13.31765625 -1.06640625 19.09765625 C0.25359375 18.76765625 1.57359375 18.43765625 2.93359375 18.09765625 C2.93359375 18.75765625 2.93359375 19.41765625 2.93359375 20.09765625 C1.28359375 20.09765625 -0.36640625 20.09765625 -2.06640625 20.09765625 C-2.26235301 16.95228857 -2.44674635 13.80635011 -2.62890625 10.66015625 C-2.68498047 9.76232422 -2.74105469 8.86449219 -2.79882812 7.93945312 C-2.84716797 7.08544922 -2.89550781 6.23144531 -2.9453125 5.3515625 C-2.99244385 4.56080322 -3.0395752 3.77004395 -3.08813477 2.95532227 C-3.05679898 0.27628872 -2.65757507 0.12559429 0 0 Z " fill="#547E67" transform="translate(193.06640625,182.90234375)"/>
<path d="M0 0 C0.66 0 1.32 0 2 0 C2.33 0.99 2.66 1.98 3 3 C3.66 2.34 4.32 1.68 5 1 C5.22174933 2.45635371 5.42698698 3.91522956 5.625 5.375 C5.74101562 6.18710937 5.85703125 6.99921875 5.9765625 7.8359375 C5.98429688 8.55007813 5.99203125 9.26421875 6 10 C4 12 4 12 0.375 12.125 C-0.73875 12.08375 -1.8525 12.0425 -3 12 C-2.34 11.67 -1.68 11.34 -1 11 C-1.020625 9.9275 -1.04125 8.855 -1.0625 7.75 C-1.0142016 4.85209576 -0.86844115 2.71387859 0 0 Z " fill="#2A6043" transform="translate(174,287)"/>
<path d="M0 0 C1.37432457 3.81756824 0.67975039 7.07255329 0 11 C2.64 11.66 5.28 12.32 8 13 C8 13.99 8 14.98 8 16 C6.68 16 5.36 16 4 16 C4 16.99 4 17.98 4 19 C2.35 19 0.7 19 -1 19 C0.32 18.67 1.64 18.34 3 18 C3 17.34 3 16.68 3 16 C1.02 16.33 -0.96 16.66 -3 17 C-2.22095672 5.47835991 -2.22095672 5.47835991 0 0 Z " fill="#437258" transform="translate(352,245)"/>
<path d="M0 0 C3.3 0 6.6 0 10 0 C8.68 0.99 7.36 1.98 6 3 C7.65 3.33 9.3 3.66 11 4 C11 6.31 11 8.62 11 11 C9.68 11.33 8.36 11.66 7 12 C6.67 11.01 6.34 10.02 6 9 C6.66 9 7.32 9 8 9 C8 8.34 8 7.68 8 7 C6.68 6.67 5.36 6.34 4 6 C3.67 4.35 3.34 2.7 3 1 C2.01 0.67 1.02 0.34 0 0 Z " fill="#4C785F" transform="translate(355,245)"/>
<path d="M0 0 C1.65 0.33 3.3 0.66 5 1 C5 3.64 5 6.28 5 9 C3.34385343 9.38218767 1.67542976 9.71395102 0 10 C-0.33 9.67 -0.66 9.34 -1 9 C-0.91062197 7.47480724 -0.75462854 5.95318071 -0.5625 4.4375 C-0.46066406 3.61121094 -0.35882813 2.78492188 -0.25390625 1.93359375 C-0.17011719 1.29550781 -0.08632813 0.65742188 0 0 Z " fill="#E9EFEB" transform="translate(297,193)"/>
<path d="M0 0 C0.99 0.33 1.98 0.66 3 1 C3.73046875 2.84765625 3.73046875 2.84765625 4.1875 5.0625 C4.34605469 5.79597656 4.50460938 6.52945313 4.66796875 7.28515625 C4.77753906 7.85105469 4.88710937 8.41695312 5 9 C4.67 9 4.34 9 4 9 C3.67 15.93 3.34 22.86 3 30 C0.03 30 -2.94 30 -6 30 C-6 29.67 -6 29.34 -6 29 C-3.36 29 -0.72 29 2 29 C1.86125385 25.22887069 1.71278907 21.45818555 1.5625 17.6875 C1.52318359 16.61564453 1.48386719 15.54378906 1.44335938 14.43945312 C1.40146484 13.41142578 1.35957031 12.38339844 1.31640625 11.32421875 C1.27974854 10.37635498 1.24309082 9.42849121 1.20532227 8.4519043 C1.08569813 5.863829 1.08569813 5.863829 0 3 C0 2.01 0 1.02 0 0 Z " fill="#3A6A4F" transform="translate(178,201)"/>
<path d="M0 0 C1.32 0.33 2.64 0.66 4 1 C4.6875 3.8125 4.6875 3.8125 5 7 C3.6875 8.875 3.6875 8.875 2 10 C1.34 10 0.68 10 0 10 C0 10.66 0 11.32 0 12 C-0.99 12 -1.98 12 -3 12 C-3 11.34 -3 10.68 -3 10 C-2.34 10 -1.68 10 -1 10 C-1.33 8.68 -1.66 7.36 -2 6 C-1.01 5.67 -0.02 5.34 1 5 C0.67 3.35 0.34 1.7 0 0 Z " fill="#BBCBC1" transform="translate(319,254)"/>
<path d="M0 0 C2.97 0.495 2.97 0.495 6 1 C6 1.66 6 2.32 6 3 C6.66 3 7.32 3 8 3 C8 6.3 8 9.6 8 13 C7.34 11.68 6.68 10.36 6 9 C5.01 9.33 4.02 9.66 3 10 C3 8.68 3 7.36 3 6 C2.01 5.34 1.02 4.68 0 4 C0 2.68 0 1.36 0 0 Z " fill="#1C5538" transform="translate(370,253)"/>
<path d="M0 0 C0 3 0 6 0 9 C0.66 9.33 1.32 9.66 2 10 C-5.42857143 10.14285714 -5.42857143 10.14285714 -9 9 C-9 8.34 -9 7.68 -9 7 C-7.35 6.34 -5.7 5.68 -4 5 C-4 4.01 -4 3.02 -4 2 C-2.68 1.34 -1.36 0.68 0 0 Z " fill="#265D40" transform="translate(154,222)"/>
<path d="M0 0 C0.99 0.495 0.99 0.495 2 1 C2 3.64 2 6.28 2 9 C2.66 9 3.32 9 4 9 C4.66 8.01 5.32 7.02 6 6 C6 7.98 6 9.96 6 12 C7.32 12.33 8.64 12.66 10 13 C9.34 13 8.68 13 8 13 C7.67 13.99 7.34 14.98 7 16 C7 15.34 7 14.68 7 14 C4.69 14 2.38 14 0 14 C0 9.38 0 4.76 0 0 Z " fill="#9EB6A8" transform="translate(185,191)"/>
<path d="M0 0 C3.3 0 6.6 0 10 0 C10.33 2.31 10.66 4.62 11 7 C10.01 7.33 9.02 7.66 8 8 C8 7.01 8 6.02 8 5 C6.35 4.67 4.7 4.34 3 4 C3 3.34 3 2.68 3 2 C2.01 2 1.02 2 0 2 C0 1.34 0 0.68 0 0 Z " fill="#36674C" transform="translate(367,245)"/>
<path d="M0 0 C0.68620031 1.32338632 1.34786461 2.65949948 2 4 C2.37125 4.7425 2.7425 5.485 3.125 6.25 C4.30641152 9.96300763 4.1318343 13.11088818 4 17 C3.67 16.01 3.34 15.02 3 14 C2.01 14 1.02 14 0 14 C0 13.34 0 12.68 0 12 C-0.66 12 -1.32 12 -2 12 C-1.67 11.13375 -1.34 10.2675 -1 9.375 C-0.01268659 6.04281725 0.16420974 3.44840462 0 0 Z " fill="#1C5537" transform="translate(182,184)"/>
<path d="M0 0 C0.66 0 1.32 0 2 0 C2 3.96 2 7.92 2 12 C1.34 11.67 0.68 11.34 0 11 C-0.12375 12.134375 -0.2475 13.26875 -0.375 14.4375 C-0.58125 15.613125 -0.7875 16.78875 -1 18 C-1.66 18.33 -2.32 18.66 -3 19 C-3.21869649 13.53258782 -3.04215704 9.16545605 -1 4 C-0.65023242 2.67088318 -0.30903983 1.33917261 0 0 Z " fill="#B8CABF" transform="translate(358,292)"/>
<path d="M0 0 C0 0.66 0 1.32 0 2 C-0.66 2 -1.32 2 -2 2 C-1.67 3.65 -1.34 5.3 -1 7 C-1.99 7.495 -1.99 7.495 -3 8 C-3 9.32 -3 10.64 -3 12 C-3.66 12 -4.32 12 -5 12 C-5.33 12.99 -5.66 13.98 -6 15 C-6.02705729 13.22925083 -6.04642195 11.45838289 -6.0625 9.6875 C-6.07410156 8.70136719 -6.08570313 7.71523438 -6.09765625 6.69921875 C-6 4 -6 4 -5 1 C-3 0 -3 0 0 0 Z " fill="#175133" transform="translate(321,252)"/>
<path d="M0 0 C0.66 0 1.32 0 2 0 C2.66 3.3 3.32 6.6 4 10 C5.32 9.67 6.64 9.34 8 9 C7.67 9.99 7.34 10.98 7 12 C4.69 12 2.38 12 0 12 C0 8.04 0 4.08 0 0 Z " fill="#B8C9BF" transform="translate(331,294)"/>
<path d="M0 0 C1.65 0.33 3.3 0.66 5 1 C5.79953138 4.28696233 6.09658936 5.71023192 5 9 C4.01 9 3.02 9 2 9 C2 7.68 2 6.36 2 5 C1.01 5 0.02 5 -1 5 C-0.67 3.35 -0.34 1.7 0 0 Z " fill="#4B785F" transform="translate(321,266)"/>
<path d="M0 0 C1.134375 0.020625 2.26875 0.04125 3.4375 0.0625 C1.4575 1.0525 1.4575 1.0525 -0.5625 2.0625 C-0.5625 3.3825 -0.5625 4.7025 -0.5625 6.0625 C-1.5525 6.0625 -2.5425 6.0625 -3.5625 6.0625 C-3.5625 7.7125 -3.5625 9.3625 -3.5625 11.0625 C-2.9025 11.3925 -2.2425 11.7225 -1.5625 12.0625 C-2.2225 13.3825 -2.8825 14.7025 -3.5625 16.0625 C-4.54454842 12.78121122 -4.69662615 9.79274479 -4.6875 6.375 C-4.69007813 5.40175781 -4.69265625 4.42851562 -4.6953125 3.42578125 C-4.47994797 -0.40644053 -3.99701386 0.07012305 0 0 Z " fill="#5D856E" transform="translate(317.5625,243.9375)"/>
<path d="M0 0 C1 3 1 3 0.375 5.125 C-1 7 -1 7 -3.625 7.75 C-4.800625 7.87375 -4.800625 7.87375 -6 8 C-6.33 6.35 -6.66 4.7 -7 3 C-4.69 2.01 -2.38 1.02 0 0 Z " fill="#88A694" transform="translate(340,264)"/>
<path d="M0 0 C2.0625 0.4375 2.0625 0.4375 4 1 C1.73030256 3.26969744 0.02604513 3.99131829 -3 5 C-4.32 5 -5.64 5 -7 5 C-7 3.68 -7 2.36 -7 1 C-5.5459375 1.0309375 -5.5459375 1.0309375 -4.0625 1.0625 C-1.12534105 1.35618499 -1.12534105 1.35618499 0 0 Z " fill="#3B6D52" transform="translate(336,270)"/>
<path d="M0 0 C1.37432457 3.81756824 0.67975039 7.07255329 0 11 C0.66 11 1.32 11 2 11 C2 11.99 2 12.98 2 14 C0.68 14 -0.64 14 -2 14 C-2.1799928 8.78020872 -1.97094808 4.92737019 0 0 Z " fill="#5E866F" transform="translate(352,245)"/>
<path d="M0 0 C0.99 0.33 1.98 0.66 3 1 C3.33 3.31 3.66 5.62 4 8 C2.68 8.33 1.36 8.66 0 9 C0 6.03 0 3.06 0 0 Z " fill="#255B3E" transform="translate(192,193)"/>
<path d="M0 0 C3.96 0 7.92 0 12 0 C12 0.33 12 0.66 12 1 C8.7 1 5.4 1 2 1 C1.67 3.97 1.34 6.94 1 10 C0.67 10 0.34 10 0 10 C-1.125 2.25 -1.125 2.25 0 0 Z " fill="#547D66" transform="translate(330,211)"/>
<path d="M0 0 C2 3 2 3 2 5 C-0.64 5 -3.28 5 -6 5 C-5.67 3.68 -5.34 2.36 -5 1 C-5 1.66 -5 2.32 -5 3 C-4.01 3 -3.02 3 -2 3 C-2 2.34 -2 1.68 -2 1 C-1.34 0.67 -0.68 0.34 0 0 Z " fill="#46735A" transform="translate(258,190)"/>
<path d="M0 0 C0.33 0.66 0.66 1.32 1 2 C3.31 2 5.62 2 8 2 C7.67 3.32 7.34 4.64 7 6 C6.01 5.67 5.02 5.34 4 5 C4 4.34 4 3.68 4 3 C3.34 3 2.68 3 2 3 C2 3.66 2 4.32 2 5 C1.34 5 0.68 5 0 5 C0 3.35 0 1.7 0 0 Z " fill="#37694E" transform="translate(184,203)"/>
<path d="M0 0 C0.33 0 0.66 0 1 0 C1 1.98 1 3.96 1 6 C2.32 6.33 3.64 6.66 5 7 C4.34 7 3.68 7 3 7 C2.67 7.99 2.34 8.98 2 10 C2 9.34 2 8.68 2 8 C0.35 8 -1.3 8 -3 8 C-3 7.34 -3 6.68 -3 6 C-2.01 6 -1.02 6 0 6 C0 4.02 0 2.04 0 0 Z " fill="#7D9C8A" transform="translate(190,197)"/>
<path d="M0 0 C0.66 0.33 1.32 0.66 2 1 C0.625 3 0.625 3 -1 5 C-1.66 5 -2.32 5 -3 5 C-3 7.97 -3 10.94 -3 14 C-3.33 14 -3.66 14 -4 14 C-4.63019694 4.82713348 -4.63019694 4.82713348 -2 1.375 C-1.34 0.92125 -0.68 0.4675 0 0 Z " fill="#4F7B63" transform="translate(143,184)"/>
<path d="M0 0 C2.97 0.495 2.97 0.495 6 1 C5.67 2.32 5.34 3.64 5 5 C3.35 5 1.7 5 0 5 C0 3.33333333 0 1.66666667 0 0 Z " fill="#2F6347" transform="translate(370,253)"/>
<path d="M0 0 C0 1.32 0 2.64 0 4 C-0.66 4 -1.32 4 -2 4 C-2 4.66 -2 5.32 -2 6 C-2.99 6 -3.98 6 -5 6 C-4.625 3.5625 -4.625 3.5625 -4 1 C-2 0 -2 0 0 0 Z " fill="#285E42" transform="translate(143,246)"/>
<path d="M0 0 C2.475 0.495 2.475 0.495 5 1 C4.67 2.98 4.34 4.96 4 7 C3.34 7 2.68 7 2 7 C1.34 4.69 0.68 2.38 0 0 Z " fill="#155132" transform="translate(180,201)"/>
<path d="M0 0 C4.62 0 9.24 0 14 0 C14 0.33 14 0.66 14 1 C12.75283203 1.09087891 12.75283203 1.09087891 11.48046875 1.18359375 C9.85044922 1.30927734 9.85044922 1.30927734 8.1875 1.4375 C7.10855469 1.51871094 6.02960938 1.59992188 4.91796875 1.68359375 C1.94010095 1.90212461 1.94010095 1.90212461 -1 3 C-0.67 2.01 -0.34 1.02 0 0 Z " fill="#D9E3DC" transform="translate(204,321)"/>
<path d="M0 0 C0.99 0 1.98 0 3 0 C3.33 1.32 3.66 2.64 4 4 C2.02 4.33 0.04 4.66 -2 5 C-2 4.01 -2 3.02 -2 2 C-1.34 2 -0.68 2 0 2 C0 1.34 0 0.68 0 0 Z " fill="#2E6347" transform="translate(317,310)"/>
<path d="M0 0 C1.98 0 3.96 0 6 0 C6.33 0.99 6.66 1.98 7 3 C4.69 3 2.38 3 0 3 C0 2.01 0 1.02 0 0 Z " fill="#749782" transform="translate(323,309)"/>
<path d="M0 0 C1.32 0.33 2.64 0.66 4 1 C3.67 1.99 3.34 2.98 3 4 C2.01 3.67 1.02 3.34 0 3 C0 3.99 0 4.98 0 6 C-0.66 5.67 -1.32 5.34 -2 5 C-1.34 3.35 -0.68 1.7 0 0 Z " fill="#427157" transform="translate(325,256)"/>
<path d="M0 0 C1.98 0 3.96 0 6 0 C6 1.65 6 3.3 6 5 C5.01 4.67 4.02 4.34 3 4 C3 3.34 3 2.68 3 2 C2.01 2 1.02 2 0 2 C0 1.34 0 0.68 0 0 Z " fill="#265D40" transform="translate(367,245)"/>
<path d="M0 0 C0.66 1.32 1.32 2.64 2 4 C-0.31 4 -2.62 4 -5 4 C-4.67 3.01 -4.34 2.02 -4 1 C-1.9375 0.3125 -1.9375 0.3125 0 0 Z " fill="#1A5335" transform="translate(150,224)"/>
<path d="M0 0 C1.46132217 2.92264434 2.34099246 4.92463146 3 8 C1.68 8.33 0.36 8.66 -1 9 C-0.67 6.03 -0.34 3.06 0 0 Z " fill="#37694D" transform="translate(182,184)"/>
</svg>
